<?xml version="1.0" encoding="UTF-8"?>
<svg width="18px" height="18px" viewBox="0 0 18 18" version="1.1" xmlns="http://www.w3.org/2000/svg" xmlns:xlink="http://www.w3.org/1999/xlink">
    <!-- Generator: Sketch 58 (84663) - https://sketch.com -->
    <title>instagram</title>
    <desc>Created with Sketch.</desc>
    <g id="Symbols" stroke="none" stroke-width="1" fill="none" fill-rule="evenodd">
        <g id="Footer-Nav" transform="translate(-1143.000000, -207.000000)" fill="#FFFFFF" fill-rule="nonzero">
            <g id="instagram" transform="translate(1143.000000, 207.000000)">
                <path d="M12.375,0 L5.625,0 C2.518875,0 0,2.518875 0,5.625 L0,12.375 C0,15.481125 2.518875,18 5.625,18 L12.375,18 C15.481125,18 18,15.481125 18,12.375 L18,5.625 C18,2.518875 15.481125,0 12.375,0 Z M16.3125,12.375 C16.3125,14.54625 14.54625,16.3125 12.375,16.3125 L5.625,16.3125 C3.45375,16.3125 1.6875,14.54625 1.6875,12.375 L1.6875,5.625 C1.6875,3.45375 3.45375,1.6875 5.625,1.6875 L12.375,1.6875 C14.54625,1.6875 16.3125,3.45375 16.3125,5.625 L16.3125,12.375 Z" id="Shape"></path>
                <path d="M9.5,5 C7.014875,5 5,7.014875 5,9.5 C5,11.985125 7.014875,14 9.5,14 C11.985125,14 14,11.985125 14,9.5 C14,7.014875 11.985125,5 9.5,5 Z M9.5,12.3125 C7.94975,12.3125 6.6875,11.05025 6.6875,9.5 C6.6875,7.948625 7.94975,6.6875 9.5,6.6875 C11.05025,6.6875 12.3125,7.948625 12.3125,9.5 C12.3125,11.05025 11.05025,12.3125 9.5,12.3125 Z" id="Shape"></path>
                <circle id="Oval" cx="13.5" cy="4.5" r="1"></circle>
            </g>
        </g>
    </g>
</svg>