<?xml version="1.0" encoding="UTF-8"?>
<svg width="18px" height="15px" viewBox="0 0 18 15" version="1.1" xmlns="http://www.w3.org/2000/svg" xmlns:xlink="http://www.w3.org/1999/xlink">
    <!-- Generator: Sketch 58 (84663) - https://sketch.com -->
    <title>twitter-black-shape</title>
    <desc>Created with Sketch.</desc>
    <g id="Symbols" stroke="none" stroke-width="1" fill="none" fill-rule="evenodd">
        <g id="Footer-Nav" transform="translate(-1111.000000, -209.000000)" fill="#FFFFFF" fill-rule="nonzero">
            <g id="twitter-black-shape" transform="translate(1111.000000, 209.000000)">
                <path d="M17.4693672,2.11937079 C17.3806056,2.14488183 17.2918772,2.16863348 17.2031488,2.19075608 C16.6607137,2.32554427 16.6108536,2.14768381 17.0035761,1.75527652 C17.1794438,1.57943609 17.3348509,1.38818477 17.4697976,1.18162033 C17.7723018,0.718414211 17.509924,0.516411122 16.9952661,0.732782495 C16.8116844,0.809967223 16.6250568,0.879951519 16.4358468,0.942344409 C15.9055621,1.11759838 15.1530591,0.853234982 14.6805472,0.558310472 C14.0840142,0.186038328 13.4060696,0 12.6464816,0 C11.5825022,0 10.6756184,0.369274679 9.92530056,1.10723758 C9.17521444,1.84559145 8.79997274,2.73831477 8.79997274,3.78511433 C8.79997274,3.92827587 8.80828275,4.07362035 8.82470412,4.22098486 C8.85165372,4.46084724 8.44115241,4.6347328 7.8871958,4.55774356 C6.6888988,4.39125392 5.55039415,4.03393652 4.4714501,3.48618234 C3.40141199,2.9430221 2.45701729,2.25950229 1.63843152,1.43559034 C1.24713262,1.04181464 0.7179074,1.07573161 0.571803497,1.60729296 C0.484266964,1.92593654 0.440730451,2.25731935 0.440730451,2.60150655 C0.440730451,3.25013195 0.595508549,3.85171018 0.90513096,4.40624124 C1.05911448,4.68220353 1.23945165,4.93203573 1.44653978,5.15557496 C1.79486499,5.53185458 1.74156174,5.75018083 1.25670072,5.61640265 C0.77203835,5.48262448 0.41685986,5.28400983 0.41685986,5.29697712 C0.41685986,5.30994442 0.41685986,5.32050071 0.41685986,5.32050071 C0.41685986,6.23433662 0.708438622,7.03729889 1.29196033,7.72860559 C1.6514097,8.1545063 2.06899604,8.48351068 2.54455382,8.71522777 C3.04603486,8.95968409 3.27964219,9.09603618 2.99922069,9.13174511 C2.83004078,9.15328125 2.65983453,9.16403302 2.48863506,9.16403302 C2.37275841,9.16403302 2.25118725,9.15885262 2.12435198,9.14829633 C1.92375294,9.13154962 1.88769875,9.54288656 2.19182529,10.0051152 C2.43354399,10.3724025 2.74293465,10.6956074 3.11983173,10.9747952 C3.5031848,11.2589354 3.91633472,11.4628933 4.35861935,11.5871252 C4.89678362,11.7380737 5.00478066,12.0130585 4.524952,12.2961887 C3.33761362,12.9973023 2.02363861,13.3478102 0.583225624,13.3478102 C0.420932097,13.3478102 0.266120891,13.3442263 0.118229177,13.3372539 C-0.138487267,13.3251012 0.0337385444,13.5475978 0.529326427,13.803034 C2.0779351,14.6012394 3.75500132,15 5.56075683,15 C6.92601553,15 8.20817413,14.7872777 9.40706706,14.3615399 C10.6055296,13.9358347 11.6297799,13.3653389 12.4791557,12.6505086 C13.3285316,11.9356783 14.0610044,11.1135583 14.6763426,10.1837576 C15.2915152,9.25398956 15.7498239,8.28329956 16.0517322,7.27178538 C16.3532101,6.26004314 16.5041809,5.24631344 16.5041809,4.2305963 C16.5041809,4.13907587 16.5033863,4.05690622 16.5019627,3.98454351 C16.4991154,3.84854981 16.8646566,3.48044806 17.2727079,3.10381004 C17.4568856,2.93373647 17.6325546,2.75525697 17.800344,2.56804572 C18.170454,2.15465617 18.0065382,1.9652294 17.4693672,2.11937079 Z" id="Path"></path>
            </g>
        </g>
    </g>
</svg>